<svg width="16" height="16" viewBox="0 0 16 16" fill="none" xmlns="http://www.w3.org/2000/svg">
<path d="M4.70119 11.8415L2.37629 14.4985C2.07227 14.846 1.5 14.631 1.5 14.1693V4.5C1.5 3.39543 2.39543 2.5 3.5 2.5H12.5C13.6046 2.5 14.5 3.39543 14.5 4.5V9.5C14.5 10.6046 13.6046 11.5 12.5 11.5H5.45377C5.16541 11.5 4.89108 11.6245 4.70119 11.8415Z" stroke="black" stroke-linecap="round"/>
<rect x="2.05" y="2.05" width="11.9" height="11.9" stroke="#0D00FF" stroke-width="0.1"/>
<rect x="3.05" y="1.05" width="9.9" height="13.9" stroke="#FF0000" stroke-width="0.1"/>
<rect x="1.05" y="3.05" width="13.9" height="9.9" stroke="#00FF4D" stroke-width="0.1"/>
<circle cx="8" cy="8" r="6.95" stroke="black" stroke-width="0.1"/>
<path d="M2 2L14 14M14 2L2 14M8 1V15M15 8H1" stroke="black" stroke-width="0.1"/>
<path d="M5 1V15M11 1V15M1 5H15M1 11H15" stroke="black" stroke-width="0.1"/>
</svg>
