<svg width="16" height="16" viewBox="0 0 16 16" fill="none" xmlns="http://www.w3.org/2000/svg">
<path d="M14.5 12.4545L12.5 14.5L10.5 12.4545M12.5 14.5L12.5 9.5" stroke="black" stroke-linecap="round" stroke-linejoin="round"/>
<path d="M8 4.5L6.14645 2.64645C6.05268 2.55268 5.9255 2.5 5.79289 2.5H3.50001C2.39544 2.5 1.50001 3.39543 1.50001 4.5V7M8 4.5H12.4945C13.6012 4.5 14.4975 5.39877 14.4945 6.50547L14.4889 8.56092M8 4.5L6.15012 6.81235C6.05524 6.93096 5.91158 7 5.75969 7H1.50001M1.50001 7V11.4941C1.50001 12.601 2.39901 13.4974 3.50586 13.4941L8.00001 13.481" stroke="black" stroke-linecap="round"/>
</svg>
