<svg width="16" height="16" viewBox="0 0 16 16" fill="none" xmlns="http://www.w3.org/2000/svg">
<path d="M2.5 4.5C2.5 3.39543 3.39543 2.5 4.5 2.5H11.5C12.6046 2.5 13.5 3.39543 13.5 4.5V11.5C13.5 12.6046 12.6046 13.5 11.5 13.5H4.5C3.39543 13.5 2.5 12.6046 2.5 11.5V4.5Z" stroke="black"/>
<path d="M4.5 5C4.5 4.72386 4.72386 4.5 5 4.5H11C11.2761 4.5 11.5 4.72386 11.5 5V6.5C11.5 6.77614 11.2761 7 11 7H5C4.72386 7 4.5 6.77614 4.5 6.5V5Z" stroke="black"/>
<path d="M4.5 9.5C4.5 9.22386 4.72386 9 5 9H11C11.2761 9 11.5 9.22386 11.5 9.5V11C11.5 11.2761 11.2761 11.5 11 11.5H5C4.72386 11.5 4.5 11.2761 4.5 11V9.5Z" stroke="black"/>
</svg>
